<?xml version="1.0" encoding="UTF-8"?>
<!DOCTYPE svg PUBLIC "-//W3C//DTD SVG 1.1//EN" "http://www.w3.org/Graphics/SVG/1.1/DTD/svg11.dtd">
<!-- Creator: CorelDRAW -->
<svg xmlns="http://www.w3.org/2000/svg" xml:space="preserve" width="112.89mm" height="19.19mm" version="1.1" style="shape-rendering:geometricPrecision; text-rendering:geometricPrecision; image-rendering:optimizeQuality; fill-rule:evenodd; clip-rule:evenodd"
viewBox="0 0 11289 1919"
 xmlns:xlink="http://www.w3.org/1999/xlink"
 xmlns:xodm="http://www.corel.com/coreldraw/odm/2003">
 <defs>
  <style type="text/css">
   <![CDATA[
    .fil0 {fill:white}
    .fil1 {fill:white;fill-rule:nonzero}
   ]]>
  </style>
 </defs>
 <g id="Capa_x0020_1">
  <metadata id="CorelCorpID_0Corel-Layer"/>
  <path class="fil0" d="M172.56 991.09c-10.41,-148.33 47.28,-328.43 125.56,-445.18 7.5,-11.19 10.83,-17.1 18.94,-26.67 59.79,-70.42 78.34,-103.41 166.12,-167.91 37.19,-27.33 72.12,-48.02 119.55,-71.79 195.32,-97.89 425.77,-100.32 626.71,-17.28 47.28,19.53 86.6,41.63 125.06,66.31 68.35,43.89 102.14,81.32 152.71,132.62l41.85 52.36c170.94,233.88 198.84,552.63 58.61,811.01 -131.24,241.81 -365.15,387.93 -647.42,402.42 -114.08,5.85 -228.59,-20.16 -320.33,-58.76 -60.73,-25.55 -130.88,-65.64 -179.02,-106.36 -55.14,-46.63 -48.01,-43.33 -97.79,-93.48l-52.39 -64.62c-24.41,-34.57 -42.62,-69.04 -61.67,-107.05 -47.61,-94.99 -68.17,-187.06 -76.49,-305.62zm709.14 -961.18c-141.82,8 -258.29,45.05 -369.17,99.45 -52.16,25.58 -102.13,58.32 -144.07,90.09 -35.22,26.67 -61.65,50.35 -93.82,80.39 -10.15,9.48 -19.19,20.87 -28.65,31.28 -162.12,178.43 -265.44,427.98 -246.53,687.63 14.9,204.71 77.14,360.13 189.34,512.49 180.67,245.35 482.84,383.77 800.11,369.67 178.84,-7.96 375.23,-82.36 512.46,-188.92 95.02,-73.79 158.2,-144.22 224.17,-243.97 103.02,-155.79 155.33,-359.93 144.85,-556.97 -9.62,-180.76 -82.48,-379.88 -189.65,-511.95l-52.71 -64.43c-8.49,-9.71 -19.52,-19.07 -28.46,-28.55 -176.39,-187 -455.97,-290.99 -717.87,-276.21z"/>
  <path class="fil0" d="M1111.5 1138.02c19.05,0 34.49,15.44 34.49,34.48 0,19.05 -15.44,34.49 -34.49,34.49 -19.05,0 -34.49,-15.44 -34.49,-34.49 0,-19.04 15.44,-34.48 34.49,-34.48zm-356.08 0c19.05,0 34.49,15.44 34.49,34.48 0,19.05 -15.44,34.49 -34.49,34.49 -19.05,0 -34.49,-15.44 -34.49,-34.49 0,-19.04 15.44,-34.48 34.49,-34.48zm-53.17 -184.3c23.64,0 42.81,19.17 42.81,42.81 0,23.65 -19.17,42.82 -42.81,42.82 -23.65,0 -42.82,-19.17 -42.82,-42.82 0,-23.64 19.17,-42.81 42.82,-42.81zm460.3 0c23.65,0 42.82,19.17 42.82,42.81 0,23.65 -19.17,42.82 -42.82,42.82 -23.64,0 -42.81,-19.17 -42.81,-42.82 0,-23.64 19.17,-42.81 42.81,-42.81zm-5.53 -123.87c-4.07,13.84 -13.97,26.07 -30.75,32.54 -5.33,2.23 -11.07,3.63 -17.09,4.07 -10.18,0.95 -19.25,-0.95 -27,-4.84 -18.94,-8.7 -32.09,-27.82 -32.09,-50.02 0,-30.39 24.63,-55.02 55.02,-55.02 30.38,0 55.01,24.63 55.01,55.02 0,6.4 -1.09,12.54 -3.1,18.25zm-343.76 -16.48c0.6,22.89 -11.97,45.66 -42.01,51.81 -1.14,0.23 -2.27,0.43 -3.39,0.6 -3.11,0.55 -6.31,0.83 -9.58,0.83 -30.39,0 -55.02,-24.63 -55.02,-55.01 0,-30.39 24.63,-55.02 55.02,-55.02 30.38,0 55.01,24.63 55.01,55.02 0,0.59 -0.01,1.18 -0.03,1.77zm118.43 725.33l2.85 -0.01c85.85,-0.13 162.25,-44.09 216.38,-97.17l46.85 -58.73c13.43,-21.89 26.39,-40.03 39.02,-66.44 11.06,-23.13 21.81,-50.49 29.51,-76.29 42.49,-142.23 37.91,-298.57 -20.26,-434.87 -11.67,-27.33 -87.76,-164.48 -117.37,-156.81 -9.7,5.58 -16.5,13.9 -27.09,21.58 -31.73,23.01 -69.7,36.64 -111.29,42.81 -7.43,22.95 -12.61,109.65 -15.1,138.73 -4.13,48.18 -9.52,95.7 -13.89,143.23l-27.83 280.97c-0.2,0.74 -0.65,1.74 -0.83,2.33 -0.18,0.59 -0.51,1.56 -0.9,2.28l-53.96 -566.23c-17.8,-7.45 -37.76,-4.8 -76.75,-23.31 -12.8,-6.09 -22.41,-11.19 -33.02,-18.44 -36.22,-24.76 -28.99,-46.96 -82,21.75 -117.54,152.34 -144.85,372.79 -80.54,563.32 8.83,26.18 19.01,46.75 30.08,69.7 16.49,34.17 56.98,93.79 83.77,118.95 54.27,50.96 128.9,92.77 212.37,92.65z"/>
  <path class="fil0" d="M869.23 439.21c11.16,16.32 26.06,9.35 19.19,40.87 -14.45,27.17 -29.16,-18.38 -98.42,32.45 -103.79,76.18 6.58,185.56 175.2,169.21 157.47,-15.27 211.19,-136.04 67.88,-191.78 -32.86,-12.78 -38.07,10.23 -52.68,-7.37 -17.49,-21.05 13.03,-38.62 16.6,-43.35 -43.65,-25.39 -84.36,-25.38 -127.77,-0.03z"/>
  <path class="fil0" d="M578.36 827.81c45.2,-76.25 3.96,-42.82 6.98,-93.65 1.92,-32.47 20.42,-109.21 -27.02,-102.17 -32.33,4.79 -27.02,75.96 -28.97,107.78 -2.84,46.58 8.42,43.14 31.29,71.29 7.1,8.75 7.01,13.25 17.72,16.75z"/>
  <path class="fil0" d="M525.33 1330.8c-0.06,23.47 -2.78,100.87 8.26,115.38 9.47,12.46 29.59,15.98 41.77,2.11 12.26,-13.95 6.11,-71.41 6.19,-94.65 0.02,-26.02 7,-24.35 18.31,-37 -1.82,-9.44 -16.76,-47.99 -22.16,-54.1 -7.73,2.01 -52.31,40.67 -52.37,68.26z"/>
  <path class="fil0" d="M1286.43 827.34c7.13,-2.57 26.64,-24.26 32.59,-31.31 15.06,-17.82 20.39,-16.86 18.55,-50.44 -1.16,-21.07 -1.57,-42.09 -2.61,-62.75 -1.19,-23.65 0.42,-43.92 -19.76,-49.63 -49.54,-14.04 -35.6,60.8 -33.83,95.26 2.21,43.11 -17.99,31.14 -15.62,50.73 0.34,2.86 18.87,44.92 20.68,48.14z"/>
  <path class="fil0" d="M547.74 1052.53l1.33 -56.15c-12.09,0.59 -34.77,11.44 -46.7,16.43 -19.47,8.15 -25.2,13.24 -32.96,32.68 -6.31,15.84 -36.2,81.34 -36.71,94.27 -0.72,18.51 14.05,30.8 32.96,27.74 19.42,-3.15 21.06,-18.8 28.66,-37.11 37.57,-90.63 20.67,-54.41 53.42,-77.86z"/>
  <path class="fil0" d="M1323.13 1054.84c32.36,11.1 26.62,10.94 52.35,74.77 6.45,16.02 9.95,32.67 25.82,37.2 21.33,6.1 36.09,-7.79 35.69,-27.2 -0.26,-12.61 -29.29,-76.96 -35.75,-92.85 -8.2,-20.21 -11.27,-24.8 -30.32,-32.48 -14.85,-5.98 -33.67,-16 -50.29,-18.63l2.5 59.19z"/>
  <path class="fil0" d="M1266.55 1313.61c6.55,11.59 18.46,15.97 18.04,36.3 -0.72,34.49 -9.96,90.95 10.05,103.33 17.01,10.52 35.01,-0.5 40.09,-13.39 3.89,-9.85 6.41,-95.99 5.88,-112.08 -0.58,-17.92 -12.01,-28.34 -21.11,-36.57 -17.53,-15.85 -18.79,-25.91 -30.97,-28.21l-21.98 50.62z"/>
  <path class="fil0" d="M876.85 479.29c17.75,-26.49 -21.78,-18.34 -37.4,-69.73 -2.76,-9.05 -7.19,-21.79 -20.27,-16.41 -23.44,9.64 20.98,93.65 57.67,86.14z"/>
  <path class="fil0" d="M1036.06 395.27c-16.57,11.66 -3.6,23.64 -28.62,49.26 -5.84,5.98 -19.27,12.56 -21.61,19.51 -9.03,26.75 34.55,20.65 57.8,-26.14 17.91,-36.03 8.63,-54.01 -7.57,-42.63z"/>
  <path class="fil1" d="M2444.81 1344.36c47.23,0 85.47,-5.19 114.28,-15.82 24.31,-8.97 42.73,-23.61 54.77,-43.44 12.27,-20.06 18.65,-47.46 19.11,-82.4 0,-41.77 -12.74,-73.88 -38.48,-95.84 -15.34,-13.93 -34.46,-25.26 -57.12,-34 -13,-5.42 -36.36,-13.45 -70.12,-23.84 -10.16,-2.83 -15.35,-4.49 -15.58,-4.72 -29.52,-8.97 -53.36,-16.77 -71.77,-23.38 -22.67,-8.25 -43.21,-16.52 -61.39,-25.02 -21.96,-10.62 -39.66,-20.54 -52.64,-29.75 -34,-25.25 -57.61,-52.64 -71.06,-82.39 -16.06,-36.59 -24.08,-79.8 -24.08,-129.37 0,-80.97 19.35,-143.54 58.07,-187.68 18.42,-21.02 42.26,-38.25 71.54,-51.48 53.83,-25.01 127.01,-37.53 219.79,-37.53 90.66,0 181.54,9.44 273.14,28.08l-15.34 133.16c-86.64,-13.22 -157,-19.59 -211.05,-19.59 -14.65,0 -24.56,0 -30.23,0.47 -8.25,0 -18.88,0.24 -31.87,1.18 -21.95,1.42 -43.67,4.72 -65.39,9.68 -19.83,4.25 -38.72,12.51 -56.66,24.78 -26.45,17.71 -39.43,44.63 -39.43,80.75 0,47.46 14.17,82.86 42.97,105.76 18.88,15.11 51.94,29.28 99.39,42.5 11.09,3.07 22.91,6.37 35.64,9.91l20.07 5.44c74.38,20.06 131.98,44.61 172.58,73.41 33.52,24.09 58.08,53.83 73.66,89.25 15.34,35.41 23.37,80.5 24.08,135.28 0,104.81 -31.63,180.13 -94.91,225.69 -59.96,43.21 -149.2,64.92 -267.71,64.92 -93.97,0 -186.04,-9.21 -276.23,-28.09l16.54 -136.7c96.32,13.93 181.54,20.78 255.43,20.78zm1135.15 -423.29c11.8,47.91 17.71,107.41 17.71,178.47 0,70.82 -5.91,130.55 -17.71,178.96 -23.61,97.5 -77.67,160.3 -161.95,188.62 -42.49,14.17 -94.91,21.25 -157.23,21.25 -63.04,0 -115.45,-6.84 -157.23,-20.3 -84.28,-27.62 -138.35,-90.18 -162.43,-187.92 -11.58,-49.11 -17.48,-109.31 -17.48,-180.61 0,-71.3 5.9,-131.5 17.48,-180.13 24.08,-97.74 78.15,-160.3 162.43,-187.46 41.54,-13.92 93.95,-20.77 157.23,-20.77 62.32,0 114.74,7.08 157.23,21.25 84.28,28.34 138.34,91.13 161.95,188.64zm-493.41 178.47c0,82.4 7.08,143.07 21.71,182.02 12.27,29.75 29.99,50.05 53.13,61.15 22.9,11.09 55.94,16.76 99.39,17.46 35.88,0 64.68,-4.24 86.16,-12.74 21.49,-8.26 38.96,-22.43 52.42,-42.5 13.69,-20.54 23.37,-46.98 28.32,-79.56 5.44,-31.39 8.03,-73.41 8.03,-125.83 0,-52.41 -2.59,-94.2 -8.03,-125.36 -4.95,-32.35 -14.63,-58.79 -28.32,-79.56 -13.46,-20.07 -30.93,-34.23 -52.66,-42.73 -21.48,-8.27 -50.28,-12.51 -85.92,-12.51 -35.18,-0.24 -63.75,3.78 -85.94,11.8 -21.96,8.03 -39.66,21.48 -52.65,40.13 -8.5,13 -15.35,29.28 -20.77,48.4 -9.92,34.24 -14.87,87.59 -14.87,159.83zm642.89 182.73l0 -853.44 161.95 0 0 846.12c0,34.94 4.26,65.63 12.75,91.84 8.74,26.67 22.91,52.88 42.5,78.38l-140.71 66.57c-25.73,-29.04 -45.08,-61.85 -57.84,-98.21 -12.27,-36.83 -18.65,-80.5 -18.65,-131.26zm799.89 -48.4l0 -512.54 161.25 0 0 561.89c0,46.74 -2.12,93.01 -6.37,138.81 -90.19,44.39 -203.75,66.34 -340.43,66.34 -55.01,0 -103.18,-5.67 -144.25,-17 -33.05,-9.67 -62.09,-25.73 -87.12,-48.39 -18.89,-17.95 -33.76,-42.26 -44.62,-73.19 -4.25,-12.76 -7.55,-27.39 -10.15,-44.14 -4.24,-28.34 -6.38,-61.39 -6.38,-98.93l0 -485.39 161.48 0 0 467.92c0,20.07 0.72,38.25 2.13,54.77 4.25,35.42 13.46,60.91 27.62,76.49 12.98,13.93 30.94,24.08 53.83,30.69 22.66,6.38 53.36,9.69 91.61,9.69 25.49,0 50.75,-2.13 75.53,-6.38 25.03,-4.72 45.34,-11.1 61.15,-19.13 3.31,-29.5 4.72,-63.26 4.72,-101.51zm827.06 -496.48l-12.76 119.46c-56.88,-10.4 -100.57,-15.82 -131.26,-15.82 -50.52,0 -89.95,4.01 -118.75,12.04 -28.79,8.03 -50.52,21.24 -65.15,39.9 -10.62,12.51 -18.89,31.86 -25.27,58.31 -2.11,11.81 -4.24,25.26 -5.9,39.9 -2.35,23.6 -3.3,57.13 -3.3,101.05 0,71.53 3.06,121.1 9.2,148.72 8.97,40.14 27.86,68.94 57.14,86.41 31.63,18.88 82.63,28.57 152.98,28.57 30.22,0 73.66,-5.67 129.85,-16.76l14.63 123c-76.25,17.47 -154.63,26.2 -235.13,26.2 -35.18,0 -67.05,-3.78 -95.61,-11.33 -28.34,-7.79 -52.42,-17.94 -72.49,-30.69 -19.83,-12.75 -37.53,-29.28 -52.87,-49.34 -28.34,-37.07 -47.69,-82.64 -57.84,-136.47 -4.97,-25.49 -8.75,-52.4 -11.1,-81.2 -1.9,-24.55 -2.84,-53.59 -2.84,-87.11 0,-37.07 1.18,-70.13 3.78,-98.93 6.14,-66.57 19.59,-118.27 40.37,-155.1 23.6,-42.73 58.32,-74.6 104.34,-95.62 46.04,-21.01 108.14,-31.4 186.04,-31.4 67.05,0 131.03,8.74 191.94,26.21zm303.66 -220.5c0,37.77 -7.09,63.51 -21.02,77.43 -13.46,13.69 -39.42,20.78 -77.2,20.78 -37.77,0 -63.51,-7.09 -77.44,-20.78 -13.69,-14.16 -20.29,-40.13 -20.29,-77.43 0,-37.3 6.84,-63.04 20.77,-76.97 14.16,-14.16 39.66,-21.25 76.96,-21.25 37.07,0 62.8,7.09 76.96,21.25 14.17,14.16 21.26,39.9 21.26,76.97zm-16.78 204.44l0 756.89 -162.17 0 0 -756.89 162.17 0zm798.26 199.74c11.8,47.91 17.7,107.41 17.7,178.47 0,70.82 -5.9,130.55 -17.7,178.96 -23.62,97.5 -77.67,160.3 -161.96,188.62 -42.49,14.17 -94.9,21.25 -157.22,21.25 -63.04,0 -115.46,-6.84 -157.24,-20.3 -84.28,-27.62 -138.35,-90.18 -162.43,-187.92 -11.57,-49.11 -17.47,-109.31 -17.47,-180.61 0,-71.3 5.9,-131.5 17.47,-180.13 24.08,-97.74 78.15,-160.3 162.43,-187.46 41.54,-13.92 93.96,-20.77 157.24,-20.77 62.32,0 114.73,7.08 157.22,21.25 84.29,28.34 138.34,91.13 161.96,188.64zm-493.42 178.47c0,82.4 7.08,143.07 21.71,182.02 12.28,29.75 30,50.05 53.13,61.15 22.9,11.09 55.95,16.76 99.4,17.46 35.87,0 64.67,-4.24 86.16,-12.74 21.48,-8.26 38.96,-22.43 52.41,-42.5 13.69,-20.54 23.38,-46.98 28.32,-79.56 5.44,-31.39 8.03,-73.41 8.03,-125.83 0,-52.41 -2.59,-94.2 -8.03,-125.36 -4.94,-32.35 -14.63,-58.79 -28.32,-79.56 -13.45,-20.07 -30.93,-34.23 -52.65,-42.73 -21.48,-8.27 -50.28,-12.51 -85.92,-12.51 -35.18,-0.24 -63.76,3.78 -85.95,11.8 -21.95,8.03 -39.66,21.48 -52.65,40.13 -8.49,13 -15.34,29.28 -20.76,48.4 -9.93,34.24 -14.88,87.59 -14.88,159.83zm1291.9 -106.71l0 485.39 -161.48 0 0 -467.92c0,-21.72 -0.95,-40.14 -2.6,-54.77 -3.54,-35.65 -12.75,-61.15 -27.63,-76.49 -12.98,-13.93 -30.92,-24.08 -53.82,-30.7 -23.14,-6.37 -53.83,-9.67 -92.31,-9.67 -26.44,0 -51.94,2.12 -76.49,6.61 -25.02,4.24 -45.56,10.62 -61.62,18.89 -3.07,29.51 -4.72,63.26 -4.72,101.5l0 512.55 -161.01 0 0 -561.88c0,-46.75 2.13,-93.01 6.38,-139.05 90.18,-44.15 203.97,-66.11 341.6,-66.11 109.08,0.94 184.86,21.49 227.35,61.63 14.88,13.93 26.45,28.08 34.71,42.97 8.26,14.63 14.87,32.33 19.83,52.87 5.43,21.49 8.5,40.84 9.67,58.78 1.42,20.78 2.14,42.51 2.14,65.4zm430.18 181.55l-133.38 5.9c3.3,55.48 16.75,97.5 40.37,126.3 17.46,19.37 39.42,33.3 65.87,41.56 26.19,8.26 58.07,12.27 95.61,12.03 78.38,0 169.03,-6.6 271.49,-19.59l13.69 120.16c-115.68,18.42 -224.75,27.63 -326.98,27.63 -48.39,0 -91.6,-6.14 -129.36,-18.88 -37.78,-12.52 -68.95,-30.23 -93.26,-52.89 -24.31,-22.9 -43.91,-50.75 -58.31,-83.81 -26.21,-59.97 -39.43,-137.88 -39.43,-233.25 0,-71.06 5.67,-130.32 17.48,-177.77 11.56,-47.46 30.45,-87.12 56.42,-118.99 26.43,-31.86 60.91,-55.24 103.4,-69.87 42.73,-14.41 95.85,-21.73 159.6,-21.73 112.61,0 194.06,24.79 244.57,74.37 32.82,32.34 55.48,73.42 68,123.24 12.04,46.74 18.18,103.88 18.18,171.63 0,19.83 -0.71,38.48 -2.13,56.19 -42.26,7.56 -101.51,15.11 -178,22.9 -78.63,7.78 -143.07,12.74 -193.83,14.87zm-137.64 -104.11l152.04 -7.32c73.66,-3.31 138.83,-8.97 195.47,-17 1.19,-7.79 1.66,-19.59 1.66,-35.17 0,-60.21 -12.74,-104.82 -38.71,-133.86 -25.51,-29.51 -68.7,-44.39 -129.61,-44.39 -65.4,0 -111.44,16.99 -138.11,50.75 -17.24,21.25 -28.8,47.93 -34.71,80.28 -5.43,28.56 -8.03,64.22 -8.03,106.71zm834.61 288.01c46.98,0 81.92,-2.83 104.59,-8.49 47.22,-12.28 70.82,-38.48 70.82,-78.62 0,-19.12 -4.25,-36.36 -12.98,-51.47 -6.61,-10.86 -18.18,-21.24 -34.47,-30.45 -12.51,-7.31 -28.32,-13.45 -47.69,-18.41l-26.67 -7.56c-12.04,-3.07 -20.79,-5.66 -26.45,-7.55 -56.66,-17.48 -95.61,-30.93 -117.33,-40.84 -48.87,-22.9 -82.63,-53.83 -101.04,-92.79 -12.52,-27.38 -18.66,-59.72 -18.66,-97.27 0,-63.5 16.76,-112.36 50.52,-147.08 16.06,-16.28 35.42,-29.26 57.84,-38.94 41.32,-18.42 94.21,-27.63 158.42,-27.63 52.4,0 98.44,2.13 138.1,6.62 43.21,4.95 86.66,12.5 131.04,22.66l-15.35 118.51c-72.96,-13.46 -135.98,-20.3 -189.11,-20.3 -12.74,0 -21.25,0 -25.49,0.23 -2.13,0 -10.86,0.48 -26.91,0.95 -16.06,0.94 -34.71,3.77 -55.49,8.49 -16.04,3.79 -30.69,11.34 -44.38,22.91 -12.03,10.38 -18.17,25.26 -18.17,44.62 -1.42,28.1 12.03,52.17 40.37,72 7.32,4.73 16.52,9.45 27.15,13.94 10.14,4.24 19.83,7.79 28.56,10.62l30.45 9.67 28.1 8.51c56.9,19.59 92.08,32.1 105.06,37.53 45.56,19.6 78.14,43.92 97.73,73.42 20.55,30.93 30.94,72.25 30.94,123.71 0,66.34 -18.66,117.8 -55.97,154.4 -16.52,16.06 -37.77,29.51 -63.73,40.37 -46.5,18.89 -104.82,28.33 -175.17,28.33 -94.91,0 -182.02,-9.91 -261.35,-29.74l15.35 -121.12c75.3,13.93 142.36,20.77 201.37,20.77z"/>
  <path class="fil1" d="M9032.48 1511.74c-10.75,0 -19.8,-3.42 -27.11,-10.26 -7.33,-6.84 -11,-15.63 -11,-26.37l0 -951.03c0,-10.75 3.67,-19.78 11,-27.12 7.31,-7.32 16.36,-10.98 27.11,-10.98l165.58 0c24.42,0 42.01,10.74 52.76,32.24l252.05 451.33 253.5 -451.33c10.74,-21.5 28.33,-32.24 52.75,-32.24l165.6 0c10.74,0 19.78,3.66 27.11,10.98 7.31,7.34 10.99,16.37 10.99,27.12l0 951.03c0,10.74 -3.68,19.53 -10.99,26.37 -7.33,6.84 -16.37,10.26 -27.11,10.26l-186.11 0c-9.77,0 -18.31,-3.65 -25.64,-10.98 -7.33,-7.34 -11,-15.89 -11,-25.65l0 -533.4 -158.26 290.15c-12.7,22.46 -29.79,33.69 -51.28,33.69l-79.14 0c-19.53,0 -36.63,-11.23 -51.28,-33.69l-156.8 -290.15 0 533.4c0,10.74 -3.67,19.53 -10.98,26.37 -7.33,6.84 -16.38,10.26 -27.13,10.26l-184.62 0zm1343.74 0c-16.6,0 -30.03,-4.63 -40.29,-13.92 -10.26,-9.28 -16.37,-20.75 -18.33,-34.44l-156.79 -937.84c-0.97,-1.95 -1.47,-4.88 -1.47,-8.79 0,-7.82 3.19,-14.9 9.54,-21.25 6.34,-6.35 13.43,-9.52 21.25,-9.52l191.95 0c28.34,0 43.98,11.23 46.9,33.7l89.39 553.9 101.11 -320.9c7.81,-26.39 23.93,-39.57 48.36,-39.57l109.9 0c24.42,0 40.54,13.18 48.36,39.57l101.11 319.45 90.86 -552.45c1.95,-11.73 6.34,-20.27 13.18,-25.64 6.84,-5.38 17.58,-8.06 32.24,-8.06l191.96 0c8.79,0 16.12,3.17 21.98,9.52 5.87,6.35 8.8,13.43 8.8,21.25l0 8.79 -156.79 937.84c-1.96,13.69 -8.31,25.16 -19.06,34.44 -10.75,9.29 -23.94,13.92 -39.56,13.92l-148.01 0c-15.63,0 -27.83,-3.91 -36.63,-11.73 -8.79,-7.81 -14.65,-16.61 -17.59,-26.36l-145.07 -405.91 -145.07 405.91c-3.91,9.75 -10.26,18.55 -19.05,26.36 -8.79,7.82 -21,11.73 -36.63,11.73l-146.55 0z"/>
 </g>
</svg>
