<?xml version="1.0" encoding="UTF-8"?>
<!DOCTYPE svg PUBLIC "-//W3C//DTD SVG 1.1//EN" "http://www.w3.org/Graphics/SVG/1.1/DTD/svg11.dtd">
<!-- Creator: CorelDRAW 2021 (64-Bit) -->
<svg xmlns="http://www.w3.org/2000/svg" xml:space="preserve" width="131.077mm" height="32.198mm" version="1.1" style="shape-rendering:geometricPrecision; text-rendering:geometricPrecision; image-rendering:optimizeQuality; fill-rule:evenodd; clip-rule:evenodd"
viewBox="0 0 13107.7 3219.8"
 xmlns:xlink="http://www.w3.org/1999/xlink"
 xmlns:xodm="http://www.corel.com/coreldraw/odm/2003">
 <defs>
  <style type="text/css">
   <![CDATA[
    .fil2 {fill:#6576FF;fill-rule:nonzero}
    .fil1 {fill:white;fill-rule:nonzero}
    .fil0 {fill:white;fill-rule:nonzero;fill-opacity:0.000000}
    .fil3 {fill:url(#id0)}
   ]]>
  </style>
  <linearGradient id="id0" gradientUnits="userSpaceOnUse" x1="664.56" y1="2938.4" x2="2548.46" y2="295.86">
   <stop offset="0" style="stop-opacity:1; stop-color:#6576FF"/>
   <stop offset="1" style="stop-opacity:1; stop-color:#8E88FE"/>
  </linearGradient>
 </defs>
 <g id="Capa_x0020_1">
  <metadata id="CorelCorpID_0Corel-Layer"/>
  <g id="_2680897245408">
   <path id="fill5F1_1_" class="fil0" d="M4375.27 975.11c355.7,0 644.05,288.35 644.05,644.05 0,355.7 -288.35,644.05 -644.05,644.05 -355.7,0 -644.05,-288.35 -644.05,-644.05 0,-355.7 288.35,-644.05 644.05,-644.05z"/>
   <path class="fil1" d="M3622.06 2109.53l0 -977.48 496.31 0c103.07,0 178.3,25.89 225.69,77.91 47.14,52.03 70.83,111.38 70.83,178.06 0,48.61 -13.68,92.57 -41.04,131.89 -27.11,39.33 -67.9,66.44 -121.88,81.34 126.28,30.53 189.3,106.49 189.3,227.88 0,72.79 -22.23,137.51 -66.93,194.67 -44.69,57.15 -140.2,85.73 -286.5,85.73l-465.78 0zm275.51 -603.78l139.95 0c35.18,0 59.85,-8.79 74.26,-26.38 14.41,-17.59 21.73,-36.39 21.73,-56.42 0,-54.23 -33.7,-81.34 -101.11,-81.34l-134.83 0 0 164.14zm0 386.89l147.28 0c36.64,0 63.51,-9.04 80.6,-27.11 17.1,-17.83 25.65,-38.35 25.65,-60.82 0,-22.72 -8.3,-43.48 -24.91,-62.29 -16.61,-19.05 -47.14,-28.57 -91.35,-28.57l-137.27 0 0 178.79zm1458.9 -760.59l0 647.01c0,122.61 -36.39,210.79 -109.18,264.52 -72.79,53.74 -167.8,80.6 -284.79,80.6 -123.35,0 -222.27,-25.89 -297.01,-77.42 -74.74,-51.54 -112.11,-135.32 -112.11,-251.82l0 -662.89 304.82 0 0 627.47c0,46.9 10.02,80.85 29.8,102.34 19.78,21.5 51.54,32.24 95.01,32.24 36.15,0 65.95,-7.81 89.15,-23.2 23.21,-15.63 37.13,-32.97 41.53,-52.76 4.64,-19.54 6.83,-57.64 6.83,-114.31l0 -571.78 235.95 0zm1003.61 429.39l0 548.09 -146.55 0c-11.97,-40.55 -24.91,-74.74 -39.32,-102.58 -60.58,78.16 -150.46,117.23 -269.41,117.23 -126.03,0 -229.84,-43.96 -310.93,-132.13 -81.33,-87.93 -121.88,-207.13 -121.88,-357.34 0,-146.06 39.33,-268.67 117.73,-368.08 78.65,-99.41 195.4,-149.24 350.74,-149.24 116.51,0 210.3,29.56 281.38,88.67 71.07,59.35 117.24,143.12 138.24,252.06l-290.17 28.58c-14.41,-101.61 -59.35,-152.41 -134.58,-152.41 -98.92,0 -148.26,93.54 -148.26,280.64 0,113.08 15.88,187.58 47.39,223.73 31.75,35.9 69.85,53.98 115.04,53.98 36.39,0 67.41,-10.99 93.06,-32.98 25.64,-21.98 38.59,-52.02 39.08,-90.12l-162.67 0 0 -208.1 441.11 0z"/>
   <path class="fil2" d="M7285.78 1366.53l0 743 -284.3 0 0 -743 -202.24 0 0 -234.48 688.78 0 0 234.48 -202.24 0zm1156.51 743l-332.42 0 -143.86 -373.7 -92.33 0 0 373.7 -300.42 0 0 -977.48 510.48 0c112.6,0 200.04,26.38 262.32,79.13 62.28,52.76 93.3,122.37 93.3,208.84 0,56.42 -11.48,106.24 -34.44,149.48 -22.96,43.23 -69.36,81.33 -139.46,114.31l176.83 425.72zm-568.61 -581.8l128.23 0c37.62,0 67.91,-7.82 90.86,-23.69 22.96,-15.88 34.44,-39.08 34.44,-69.86 0,-62.77 -38.34,-94.03 -115.28,-94.03l-138.25 0 0 187.58zm1250.8 581.8l-53.98 -191.98 -265.98 0 -57.65 191.98 -243.27 0 302.38 -977.48 317.04 0 307.5 977.48 -306.04 0zm-265.5 -405.94l156.32 0 -78.4 -283.08 -77.92 283.08zm1167.02 33.71l274.04 16.36c-12.94,119.44 -57.15,211.03 -132.62,274.78 -75.48,63.75 -168.29,95.74 -278.45,95.74 -132.62,0 -239.6,-43.96 -320.94,-131.64 -81.58,-87.69 -122.37,-209.08 -122.37,-363.45 0,-153.14 38.59,-276.73 115.78,-370.77 77.18,-94.03 184.89,-140.93 323.14,-140.93 129.21,0 228.61,35.66 297.98,106.98 69.12,71.32 108.45,166.09 117.48,283.82l-279.9 15.14c0,-65.21 -12.46,-112.11 -37.37,-141.17 -24.92,-29.07 -54.47,-43.48 -88.18,-43.48 -94.03,0 -141.17,95.01 -141.17,285.28 0,106.5 12.21,179.04 36.63,217.14 24.67,38.35 59.11,57.4 103.32,57.4 78.89,0 123.1,-53.74 132.63,-161.2zm1265.45 372.23l-328.03 0 -168.53 -367.35 -101.36 141.66 0 225.69 -282.84 0 0 -977.48 282.84 0 0 403.25 268.67 -403.25 269.16 0 -246.44 357.09 306.53 620.39zm816.03 -233.01l0 233.01 -735.67 0 0 -977.48 735.67 0 0 225.68 -441.11 0 0 142.16 356.12 0 0 216.89 -356.12 0 0 159.74 441.11 0zm987.01 233.01l-332.42 0 -143.86 -373.7 -92.33 0 0 373.7 -300.42 0 0 -977.48 510.48 0c112.6,0 200.04,26.38 262.32,79.13 62.28,52.76 93.3,122.37 93.3,208.84 0,56.42 -11.48,106.24 -34.44,149.48 -22.96,43.23 -69.36,81.33 -139.46,114.31l176.83 425.72zm-568.61 -581.8l128.23 0c37.62,0 67.91,-7.82 90.86,-23.69 22.96,-15.88 34.44,-39.08 34.44,-69.86 0,-62.77 -38.34,-94.03 -115.28,-94.03l-138.25 0 0 187.58z"/>
   <ellipse class="fil3" cx="1606.51" cy="1617.13" rx="1608.94" ry="1612.07"/>
   <path id="color5F1_15_" class="fil1" d="M2363.25 1864.71l-114.22 -114.22 -114.98 0c-7.49,-59.98 -19.74,-118.13 -30.46,-173.25l172.25 -123.87 0 -165.16c0,-25.26 -20.47,-45.73 -45.73,-45.73 -25.25,0 -45.72,20.47 -45.72,45.73l0 118.3 -97.49 70.11c-5.99,-49.71 -6.59,-95.84 4.39,-137.1 -99.55,-11.58 -210.16,-34.9 -313.71,-80.35l0 -115.48c0,-49.33 -35.05,-90.44 -81.58,-99.86 9.67,-41.09 30.34,-78.88 60.93,-109.49 89.6,-89.65 235.41,-89.65 325.01,0 17.89,17.84 46.8,17.84 64.67,0 17.83,-17.87 17.83,-46.8 0,-64.67 -60.74,-60.65 -141.41,-94.08 -227.22,-94.08 -85.82,0 -166.49,33.43 -227.17,94.08 -47.46,47.48 -77.97,107.26 -89.12,172.1l-60.08 0c-11.15,-64.84 -41.67,-124.62 -89.12,-172.1 -60.68,-60.65 -141.36,-94.08 -227.17,-94.08 -85.81,0 -166.49,33.43 -227.17,94.08 -17.84,17.87 -17.84,46.8 0,64.67 17.89,17.84 46.8,17.84 64.67,0 89.59,-89.65 235.41,-89.65 325,0 30.62,30.59 51.27,68.37 60.96,109.49 -46.55,9.42 -81.6,50.53 -81.6,99.86l0 115.48c-103.55,45.42 -214.19,68.75 -313.71,80.35 10.98,41.26 10.35,87.39 4.39,137.1l-97.49 -70.11 0 -118.3c0,-25.26 -20.47,-45.73 -45.72,-45.73 -25.26,0 -45.73,20.47 -45.73,45.73l0 165.16 172.23 123.87c-10.73,55.14 -22.98,113.27 -30.47,173.25l-115.03 0 -114.19 114.22c-17.84,17.86 -17.84,46.8 0,64.67 8.94,8.92 20.64,13.4 32.34,13.4 11.7,0 23.4,-4.46 32.35,-13.4l87.44 -87.44 70.2 0c-1.2,73.18 9.29,148.07 41.89,222.55 -0.68,0.43 -1.43,0.73 -2.1,1.21l-174.68 125.59 0 165.16c0,25.26 20.47,45.73 45.72,45.73 25.26,0 45.73,-20.47 45.73,-45.73l0 -118.3 129.85 -93.36c10.4,15.36 21.62,30.7 34.4,45.93 183.8,219.48 447.05,275.27 447.05,275.27 0,0 263.25,-55.79 447.07,-275.22 12.78,-15.23 23.98,-30.57 34.4,-45.93l129.86 93.36 0 118.3c0,25.26 20.47,45.73 45.72,45.73 25.26,0 45.73,-20.47 45.73,-45.73l0 -165.15 -174.68 -125.6c-0.68,-0.48 -1.41,-0.78 -2.11,-1.21 32.57,-74.48 43.1,-149.37 41.89,-222.55l70.21 -0.05 87.44 87.44c8.94,8.92 20.64,13.4 32.34,13.4 11.7,0 23.4,-4.46 32.35,-13.4 17.83,-17.87 17.83,-46.81 -0.03,-64.67zm-1245.38 -244.43c14.48,-73.29 28.41,-143.81 27.88,-210.83 173.36,-30.09 316.52,-89.15 427.28,-176.24l0 573.95 -384.01 330.79c-140.3,-167.48 -105.15,-345.5 -71.15,-517.67z"/>
  </g>
 </g>
</svg>
