<?xml version="1.0" encoding="UTF-8"?>
<!DOCTYPE svg PUBLIC "-//W3C//DTD SVG 1.1//EN" "http://www.w3.org/Graphics/SVG/1.1/DTD/svg11.dtd">
<!-- Creator: CorelDRAW 2021 (64-Bit) -->
<svg xmlns="http://www.w3.org/2000/svg" xml:space="preserve" width="170mm" height="170mm" version="1.1" style="shape-rendering:geometricPrecision; text-rendering:geometricPrecision; image-rendering:optimizeQuality; fill-rule:evenodd; clip-rule:evenodd"
viewBox="0 0 17000 17000"
 xmlns:xlink="http://www.w3.org/1999/xlink"
 xmlns:xodm="http://www.corel.com/coreldraw/odm/2003">
 <defs>
  <style type="text/css">
   <![CDATA[
    .fil0 {fill:#CCCCCC;fill-rule:nonzero}
   ]]>
  </style>
 </defs>
 <g id="Capa_x0020_1">
  <metadata id="CorelCorpID_0Corel-Layer"/>
  <path class="fil0" d="M8499.47 282.18c2269.29,0 4323.86,919.92 5811.14,2407.21 1487.29,1487.28 2407.21,3541.85 2407.21,5811.14 0,2269.28 -919.92,4323.86 -2407.21,5811.14 -1487.29,1487.3 -3541.86,2407.21 -5811.14,2407.21 -2269.28,0 -4323.85,-919.91 -5811.14,-2407.21 -1487.29,-1487.28 -2407.21,-3541.85 -2407.21,-5811.14 0,-2269.29 919.92,-4323.86 2407.21,-5811.14 1487.28,-1487.29 3541.85,-2407.21 5811.14,-2407.21zm3757.63 4460.72c-961.56,-961.56 -2290.09,-1556.31 -3757.63,-1556.31 -1467.54,0 -2796.07,594.75 -3757.63,1556.31 -961.56,961.56 -1556.31,2290.09 -1556.31,3757.63 0,1467.54 594.75,2796.07 1556.31,3757.63 961.56,961.56 2290.09,1556.31 3757.63,1556.31 1467.54,0 2796.07,-594.75 3757.63,-1556.31 961.56,-961.56 1556.31,-2290.09 1556.31,-3757.63 0,-1467.54 -594.75,-2796.07 -1556.31,-3757.63z"/>
 </g>
</svg>
