<?xml version="1.0" encoding="UTF-8"?>
<!DOCTYPE svg PUBLIC "-//W3C//DTD SVG 1.1//EN" "http://www.w3.org/Graphics/SVG/1.1/DTD/svg11.dtd">
<!-- Creator: CorelDRAW 2021 (64-Bit) -->
<svg xmlns="http://www.w3.org/2000/svg" xml:space="preserve" width="170mm" height="170mm" version="1.1" style="shape-rendering:geometricPrecision; text-rendering:geometricPrecision; image-rendering:optimizeQuality; fill-rule:evenodd; clip-rule:evenodd"
viewBox="0 0 17000 17000"
 xmlns:xlink="http://www.w3.org/1999/xlink"
 xmlns:xodm="http://www.corel.com/coreldraw/odm/2003">
 <defs>
  <style type="text/css">
   <![CDATA[
    .fil0 {fill:#EF7661;fill-rule:nonzero}
   ]]>
  </style>
 </defs>
 <g id="Capa_x0020_1">
  <metadata id="CorelCorpID_0Corel-Layer"/>
  <path class="fil0" d="M8499.47 282.18c2269.29,0 4323.86,919.92 5811.14,2407.2 1487.3,1487.3 2407.21,3541.86 2407.21,5811.15 0,2269.29 -919.92,4323.86 -2407.21,5811.15 -1487.28,1487.28 -3541.85,2407.2 -5811.14,2407.2 -2269.29,0 -4323.86,-919.92 -5811.14,-2407.2 -1487.29,-1487.29 -2407.21,-3541.86 -2407.21,-5811.15 0,-2269.29 919.91,-4323.85 2407.21,-5811.15 1487.28,-1487.28 3541.85,-2407.2 5811.14,-2407.2zm-3214.4 3986.42l8111.37 6299.06c268.51,-635.38 416.97,-1333.9 416.97,-2067.13 0,-1467.54 -594.74,-2796.07 -1556.31,-3757.63 -961.56,-961.56 -2290.09,-1556.31 -3757.63,-1556.31 -1208.08,0 -2321.89,403.09 -3214.4,1082.01zm6294.27 8562.97l-8039.37 -6243.16c-228.88,593.33 -354.44,1238.04 -354.44,1912.12 0,1467.54 594.74,2796.07 1556.31,3757.63 961.56,961.56 2290.09,1556.31 3757.63,1556.31 1148.09,0 2211.09,-364.02 3079.87,-982.9z"/>
 </g>
</svg>
